<svg xmlns="http://www.w3.org/2000/svg" width="150.52" height="21.64" viewBox="0 0 39.82 5.73"><path d="M22.53 80.7q.72 0 1.24.29.52.28.8.84.28.55.28 1.32 0 .78-.28 1.33t-.8.84q-.52.29-1.24.29h-1.95q-.1 0-.15-.03-.05-.04-.08-.13t-.03-.26q0-.18.03-.27.03-.09.08-.12.05-.04.15-.04h.4v-3.21h-.4q-.1 0-.15-.03-.05-.04-.08-.13t-.03-.26q0-.18.03-.27.03-.09.08-.12.05-.04.15-.04zm-.51 4.02h.43q.64 0 .96-.4.33-.4.33-1.17 0-.77-.33-1.16-.32-.4-.96-.4h-.43zm5.62-3.02q.91 0 1.32.4.4.38.4 1.12v1.19q0 .17.07.26.07.1.2.1h.13q.1 0 .16.03.05.03.08.12.02.1.02.27t-.02.26q-.03.1-.08.13-.06.03-.16.03h-.46q-.26 0-.45-.1-.2-.11-.3-.34-.33.25-.7.4-.36.13-.74.13-.47 0-.8-.16-.35-.16-.53-.45-.18-.3-.18-.7 0-.58.41-.9.41-.32 1.15-.32.55 0 1.17.13v-.12q0-.28-.17-.41-.18-.13-.62-.13-.24 0-.54.06-.3.06-.6.16l-.11.02q-.1 0-.19-.08-.08-.08-.14-.26-.07-.18-.07-.3 0-.2.2-.28.36-.13.78-.2.4-.06.77-.06zm-.38 2.33q-.29 0-.44.1-.15.1-.15.3 0 .2.15.3.14.1.42.1.29 0 .56-.11.29-.12.53-.32v-.26q-.55-.11-1.07-.11Zm4.97-3.42q.2 0 .3.03.1.02.15.08.04.05.04.15v1.17h1.53q.15 0 .2.1.06.09.06.34 0 .26-.05.36-.06.09-.2.09h-1.54v1.15q0 .68.53.68.2 0 .45-.08l.6-.24q.08-.04.14-.04.08 0 .16.08.07.07.14.23.07.19.07.3 0 .1-.04.16l-.13.1q-.85.43-1.48.43-.72 0-1.1-.4-.37-.4-.37-1.17v-1.2h-.8q-.15 0-.2-.1-.06-.09-.06-.35 0-.25.06-.35.05-.1.2-.1h.8v-1.16q0-.14.12-.2.13-.06.42-.06zm5.57 1.09q.9 0 1.31.4.4.38.4 1.12v1.19q0 .17.08.26.07.1.2.1h.13q.1 0 .15.03.05.03.08.12.03.1.03.27t-.03.26q-.03.1-.08.13t-.15.03h-.47q-.25 0-.45-.1-.2-.11-.3-.34-.32.25-.69.4-.36.13-.75.13-.46 0-.8-.16t-.52-.45q-.18-.3-.18-.7 0-.58.4-.9.42-.32 1.15-.32.55 0 1.17.13v-.12q0-.28-.17-.41-.17-.13-.61-.13-.25 0-.55.06-.3.06-.59.16l-.12.02q-.1 0-.19-.08-.07-.08-.14-.26-.06-.18-.06-.3 0-.2.19-.28.37-.13.78-.2.41-.06.78-.06zm-.38 2.33q-.3 0-.45.1-.15.1-.15.3 0 .2.15.3.15.1.43.1t.56-.11q.28-.12.52-.32v-.26q-.54-.11-1.06-.11zm7.86-3.33q.1 0 .15.04.06.03.08.12.03.1.03.27t-.03.26q-.02.1-.08.13-.05.03-.15.03h-.23l-.42 3.88q-.01.1-.06.16-.04.06-.15.09-.1.02-.29.02-.27 0-.4-.06-.12-.06-.17-.2l-.66-1.96-.67 1.95q-.05.15-.17.2-.13.07-.4.07-.2 0-.3-.02-.1-.03-.14-.09-.04-.06-.05-.16l-.4-3.88h-.21q-.1 0-.16-.03-.05-.04-.07-.13-.03-.09-.03-.26 0-.18.03-.27.02-.09.07-.12.06-.04.16-.04h1.63q.1 0 .15.04.05.03.08.12.03.1.03.27t-.03.26q-.03.1-.08.13t-.15.03h-.49l.22 2.41.6-1.77q.03-.1.12-.14.08-.05.27-.05.21 0 .3.04.1.04.12.13l.6 1.8.23-2.42h-.43q-.1 0-.15-.03-.05-.04-.08-.13t-.03-.26q0-.18.03-.27.03-.09.08-.12.05-.04.15-.04zm3.03 1.09q.14 0 .2.06t.06.2v2.71h1.16q.1 0 .15.04.06.03.08.12.03.1.03.27t-.03.26q-.02.1-.08.13-.05.03-.15.03h-3.32q-.1 0-.16-.03-.05-.04-.08-.13-.02-.09-.02-.26 0-.18.02-.27.03-.09.08-.12.06-.04.16-.04h1.13v-2.12h-.88q-.1 0-.16-.04-.05-.03-.08-.12-.02-.1-.02-.27t.02-.26q.03-.1.08-.12.06-.04.16-.04zm-.27-1.82q.3 0 .41.07.12.05.12.2v.67q0 .14-.11.2-.1.06-.4.06-.29 0-.4-.05-.12-.07-.12-.2v-.69q0-.14.1-.2.11-.06.4-.06zm7.07 4.8q.14 0 .2.08.06.09.06.34 0 .17-.03.26-.03.1-.08.13t-.15.03h-.71q-.2 0-.32-.17L53.03 84l-.57.43v.33h.36q.1 0 .16.04.05.03.08.12.02.1.02.27t-.02.26q-.03.1-.08.13-.06.03-.16.03h-1.7q-.1 0-.16-.03-.05-.04-.08-.13t-.03-.26q0-.18.03-.27.03-.09.08-.12.05-.04.15-.04h.32v-3.73h-.4q-.1 0-.15-.03-.06-.03-.09-.12-.02-.1-.02-.27t.02-.26q.03-.1.09-.13.05-.03.15-.03h1.17q.14 0 .2.06.06.05.06.2v2.98l1.08-.88h-.2q-.15 0-.21-.07-.06-.08-.06-.3 0-.23.06-.31.06-.08.2-.08h1.71q.15 0 .2.08.06.08.06.3 0 .23-.05.3-.06.08-.2.08h-.17l-1.03.83 1 1.38zm3.35-2.98q.14 0 .2.06t.06.2v2.71h1.16q.1 0 .16.04.05.03.08.12.03.1.03.27t-.03.26q-.03.1-.08.13-.06.03-.16.03h-3.32q-.1 0-.15-.03-.06-.04-.08-.13-.03-.09-.03-.26 0-.18.03-.27.02-.09.08-.12.05-.04.15-.04h1.13v-2.12h-.88q-.1 0-.15-.04-.06-.03-.09-.12-.02-.1-.02-.27t.02-.26q.03-.1.09-.12.05-.04.15-.04zm-.27-1.82q.3 0 .41.07.12.05.12.2v.67q0 .14-.1.2-.12.06-.4.06-.3 0-.41-.05-.12-.07-.12-.2v-.69q0-.14.1-.2.11-.06.4-.06z" aria-label="DataWiki" style="font-weight:700;font-size:8.46667px;line-height:1.25;font-family:&quot;Courier Prime&quot;;-inkscape-font-specification:&quot;Courier Prime Bold&quot;;text-align:center;text-anchor:middle;stroke-width:.264583" transform="translate(-20.32 -79.97)"/></svg>